<svg width="80" height="80" viewBox="0 0 80 80" fill="none" xmlns="http://www.w3.org/2000/svg">
<circle cx="40" cy="40" r="40" fill="white" fill-opacity="0.1"/>
<circle cx="40" cy="40" r="31.2727" fill="white" fill-opacity="0.25"/>
<path d="M47.7508 48.5274C45.9099 48.5274 44.4175 50.0198 44.4175 51.8608C44.4175 53.7017 45.9099 55.1941 47.7508 55.1941C49.5918 55.1941 51.0841 53.7017 51.0841 51.8608C51.0841 50.0198 49.5918 48.5274 47.7508 48.5274ZM47.7508 48.5274H34.9074C34.139 48.5274 33.754 48.5274 33.4377 48.3907C33.1586 48.2701 32.9165 48.0759 32.74 47.8283C32.5423 47.5508 32.4628 47.1796 32.3054 46.445L28.2033 27.3018C28.0422 26.5501 27.9606 26.1747 27.7606 25.894C27.5842 25.6463 27.3421 25.4514 27.063 25.3308C26.7466 25.1941 26.3638 25.1941 25.595 25.1941H24.4175M29.4175 30.1941H50.8729C52.0758 30.1941 52.6767 30.1941 53.0804 30.4447C53.4341 30.6642 53.693 31.0085 53.8059 31.4091C53.9348 31.8665 53.7692 32.444 53.4358 33.5999L51.1281 41.5999C50.9287 42.2909 50.829 42.6358 50.6268 42.8922C50.4483 43.1186 50.2128 43.2958 49.9459 43.4045C49.6444 43.5274 49.286 43.5274 48.571 43.5274H32.3016M32.7508 55.1941C30.9099 55.1941 29.4175 53.7017 29.4175 51.8608C29.4175 50.0198 30.9099 48.5274 32.7508 48.5274C34.5918 48.5274 36.0841 50.0198 36.0841 51.8608C36.0841 53.7017 34.5918 55.1941 32.7508 55.1941Z" stroke="white" stroke-width="2" stroke-linecap="round" stroke-linejoin="round"/>
</svg>
